<svg xmlns="http://www.w3.org/2000/svg" xmlns:xlink="http://www.w3.org/1999/xlink" width="66" height="66" viewBox="0 0 66 66"><defs><style>.a{fill:#e24339;}.b{fill:#fff;}.c{filter:url(#a);}</style><filter id="a" x="0" y="0" width="66" height="66" filterUnits="userSpaceOnUse"><feOffset dy="3" input="SourceAlpha"/><feGaussianBlur stdDeviation="3" result="b"/><feFlood flood-opacity="0.161"/><feComposite operator="in" in2="b"/><feComposite in="SourceGraphic"/></filter></defs><g transform="translate(9 6)"><g class="c" transform="matrix(1, 0, 0, 1, -9, -6)"><circle class="a" cx="24" cy="24" r="24" transform="translate(9 6)"/></g><g transform="translate(31.529 17.451)"><path class="b" d="M6.051,5.707,4.117,2.526,2.027,5.707H0L3.524,0H4.8L8.42,5.707Z" transform="translate(-2.295 -0.063)"/><path class="b" d="M6.593,16H0V0H5.957a15.745,15.745,0,0,1,2.09.156A5.049,5.049,0,0,1,9.919.749a3.61,3.61,0,0,1,1.341,1.216,3.758,3.758,0,0,1,.528,2.09A3.366,3.366,0,0,1,11.04,6.3a4.171,4.171,0,0,1-2,1.279v.062a4.269,4.269,0,0,1,1.435.437,3.279,3.279,0,0,1,1.091.842,4.144,4.144,0,0,1,.717,1.185,4.322,4.322,0,0,1,.249,1.435,4.032,4.032,0,0,1-.528,2.121,4.528,4.528,0,0,1-1.4,1.372,6.232,6.232,0,0,1-1.934.749A10.016,10.016,0,0,1,6.593,16ZM3.523,9.389v3.616h3.15a3.605,3.605,0,0,0,.811-.094,2,2,0,0,0,.749-.312,2.034,2.034,0,0,0,.561-.592,1.581,1.581,0,0,0,.218-.873,1.366,1.366,0,0,0-.281-.9A2.068,2.068,0,0,0,8.015,9.7a2.948,2.948,0,0,0-.935-.25l-.092-.008c-.3-.028-.588-.054-.844-.054Zm0-6.362V6.394H6.081A3.607,3.607,0,0,0,6.892,6.3a2.864,2.864,0,0,0,.717-.281,1.362,1.362,0,0,0,.5-.528A1.644,1.644,0,0,0,8.3,4.68a1.32,1.32,0,0,0-.218-.811,1.722,1.722,0,0,0-.561-.5,1.931,1.931,0,0,0-.78-.249,3.858,3.858,0,0,0-.842-.094Z" transform="translate(-16.529 -0.451)"/></g></g></svg>