<svg xmlns="http://www.w3.org/2000/svg" width="27" height="27" viewBox="0 0 27 27"><defs><style>.a{fill:#434343;}.b{fill:#fff;}</style></defs><circle class="a" cx="13.5" cy="13.5" r="13.5"/><g transform="translate(8 8.997)"><path class="b" d="M3.7,8.985H0V0H3.345A8.854,8.854,0,0,1,4.519.088,2.836,2.836,0,0,1,5.57.42a2.028,2.028,0,0,1,.753.683,2.111,2.111,0,0,1,.3,1.173A1.89,1.89,0,0,1,6.2,3.538a2.341,2.341,0,0,1-1.121.718v.035a2.394,2.394,0,0,1,.806.245,1.843,1.843,0,0,1,.613.473,2.328,2.328,0,0,1,.4.665,2.427,2.427,0,0,1,.14.806,2.263,2.263,0,0,1-.3,1.191,2.561,2.561,0,0,1-.788.771,3.5,3.5,0,0,1-1.086.42A5.626,5.626,0,0,1,3.7,8.985ZM1.978,5.272V7.3H3.748A2.034,2.034,0,0,0,4.2,7.251a1.123,1.123,0,0,0,.42-.175,1.14,1.14,0,0,0,.315-.333.888.888,0,0,0,.123-.49A.768.768,0,0,0,4.9,5.744a1.161,1.161,0,0,0-.4-.3,1.65,1.65,0,0,0-.525-.14l-.053,0c-.169-.016-.329-.03-.472-.03Zm0-3.573V3.59H3.415a2.015,2.015,0,0,0,.455-.053,1.607,1.607,0,0,0,.4-.158.765.765,0,0,0,.28-.3.923.923,0,0,0,.105-.455.742.742,0,0,0-.123-.455.966.966,0,0,0-.315-.28,1.068,1.068,0,0,0-.438-.14A2.173,2.173,0,0,0,3.31,1.7Z" transform="translate(0 0)"/></g><g transform="translate(15.811 9.154)"><path class="b" d="M3.4,3.205,2.312,1.419,1.138,3.205H0L1.979,0H2.7L4.729,3.205Z"/></g></svg>