<svg xmlns="http://www.w3.org/2000/svg" width="15.02" height="15.02" viewBox="0 0 15.02 15.02"><defs><style>.a{fill:#fff;}</style></defs><path class="a" d="M.307,6.7A.96.96,0,0,1,.833,5.04l3.856-.285a.63.63,0,0,0,.526-.4L6.681.586a.879.879,0,0,1,1.657,0L9.8,4.354a.646.646,0,0,0,.526.4l3.856.285A.96.96,0,0,1,14.713,6.7l-3.028,2.6a.689.689,0,0,0-.207.653l.908,3.918a.923.923,0,0,1-.845,1.155.8.8,0,0,1-.462-.151l-3.3-2.127a.556.556,0,0,0-.637,0L3.877,14.869a.851.851,0,0,1-.478.151.908.908,0,0,1-.845-1.155l.908-3.918a.637.637,0,0,0-.207-.636Z" transform="translate(0 0)"/></svg>